<svg height="512pt" viewBox="0 0 512 512" width="512pt" xmlns="http://www.w3.org/2000/svg"><path d="m256 0c-140.96875 0-256 115.050781-256 256 0 140.96875 115.050781 256 256 256 140.96875 0 256-115.050781 256-256 0-140.96875-115.050781-256-256-256zm0 482c-124.617188 0-226-101.382812-226-226s101.382812-226 226-226 226 101.382812 226 226-101.382812 226-226 226zm0 0"/><path d="m414.882812 143.046875c-5.378906-7.546875-16.269531-8.453125-22.820312-1.898437l-250.914062 250.914062c-6.558594 6.554688-5.644532 17.441406 1.898437 22.820312 33.148437 23.628907 72.207031 36.117188 112.953125 36.117188 107.523438 0 195-87.476562 195-195 0-40.746094-12.488281-79.804688-36.117188-112.953125zm-158.882812 277.953125c-28.449219 0-55.925781-7.195312-80.417969-20.949219l224.472657-224.46875c13.75 24.492188 20.945312 51.96875 20.945312 80.417969 0 90.980469-74.019531 165-165 165zm0 0"/><path d="m368.953125 97.117188c-33.148437-23.628907-72.207031-36.117188-112.953125-36.117188-107.523438 0-195 87.476562-195 195 0 40.746094 12.488281 79.804688 36.117188 112.953125 5.375 7.539063 16.253906 8.464844 22.820312 1.898437l250.914062-250.914062c6.558594-6.554688 5.644532-17.441406-1.898437-22.820312zm-257.003906 239.300781c-13.753907-24.492188-20.949219-51.96875-20.949219-80.417969 0-90.980469 74.019531-165 165-165 28.449219 0 55.925781 7.195312 80.417969 20.949219zm0 0"/></svg>