
<svg version="1.1" id="Capa_1" xmlns="http://www.w3.org/2000/svg" xmlns:xlink="http://www.w3.org/1999/xlink" x="0px" y="0px"
     viewBox="0 0 438 438" style="enable-background:new 0 0 438 438;" xml:space="preserve">
<g>
	<g>
		<path d="M219.034,0c-4.4,0-8,3.6-8,8v65.8c0,4.4,3.6,8,8,8c4.4,0,8-3.6,8-8V8C227.034,3.6,223.434,0,219.034,0z"/>
	</g>
</g>
    <g>
	<g>
		<path d="M308.034,9.1c-4.3-1-8.6,1.6-9.6,5.9l-13.6,57.2c-1,4.3,1.6,8.6,5.9,9.6s8.6-1.6,9.6-5.9l13.6-57.2
			C315.034,14.4,312.334,10.1,308.034,9.1z"/>
	</g>
</g>
    <g>
	<g>
		<path d="M153.234,72.3l-13.6-57.3c-1-4.3-5.4-6.9-9.7-5.9c-4.3,1-6.9,5.3-5.9,9.6l13.6,57.2c1.1,4.3,5.4,7,9.7,6
			S154.334,76.6,153.234,72.3z"/>
	</g>
</g>
    <g>
	<g>
		<rect x="142.034" y="131" width="153" height="38"/>
	</g>
</g>
    <g>
	<g>
		<rect x="274.034" y="309" width="10" height="22"/>
	</g>
</g>
    <g>
	<g>
		<path d="M291.034,185h-144l30.5,65.1c0.4,1.1,0.6,2.3,0.5,3.5V390h82V253.6c-0.1-1.2,0.1-2.4,0.5-3.5L291.034,185z"/>
	</g>
</g>
    <g>
	<g>
		<path d="M177.934,406v16.2h0.1c0,8.7,7.6,15.8,16.3,15.8h49.3c8.7,0,16.3-7.1,16.3-15.8V406H177.934z"/>
	</g>
</g>
    <g>
</g>
    <g>
</g>
    <g>
</g>
    <g>
</g>
    <g>
</g>
    <g>
</g>
    <g>
</g>
    <g>
</g>
    <g>
</g>
    <g>
</g>
    <g>
</g>
    <g>
</g>
    <g>
</g>
    <g>
</g>
    <g>
</g>
</svg>
